<svg class="w-full" xmlns="http://www.w3.org/2000/svg" width="64" height="24" viewBox="0 0 64 24" fill="none"><g clip-path="url(#clip0_3748_4121)"><path fill-rule="evenodd" clip-rule="evenodd" d="M43.9151 20.1777C46.6893 20.1777 48.9382 17.9288 48.9382 15.1546C48.9382 12.3803 46.6893 10.1314 43.9151 10.1314C41.1408 10.1314 38.8919 12.3803 38.8919 15.1546C38.8919 17.9288 41.1408 20.1777 43.9151 20.1777ZM43.9151 23.6721C48.6192 23.6721 52.4326 19.8587 52.4326 15.1546C52.4326 10.4504 48.6192 6.63702 43.9151 6.63702C39.2109 6.63702 35.3975 10.4504 35.3975 15.1546C35.3975 19.8587 39.2109 23.6721 43.9151 23.6721Z" fill="currentColor"></path><path d="M6.53744 16.0396L5.28548 14.6956C4.55374 13.91 3.32808 13.8542 2.52799 14.57C1.6518 15.3538 1.6518 16.7253 2.52799 17.5091C3.32808 18.2249 4.55374 18.1691 5.28548 17.3836L6.53744 16.0396ZM6.53744 16.0396L10.7788 19.5211C12.4801 20.9176 14.6131 21.681 16.8141 21.681M6.53744 16.0396L15.4653 6.63702" stroke="currentColor" stroke-width="3.53975"></path><path d="M3.98248 23.2296V0" stroke="currentColor" stroke-width="3.53975"></path><path d="M61.7768 23.7812C62.4591 23.7812 63.1312 23.7296 63.7929 23.6261V20.1212C63.4 20.1833 63.0381 20.2143 62.7073 20.2143C61.7146 20.2143 60.991 19.9869 60.5361 19.5319C60.0813 19.077 59.8536 18.4257 59.8536 17.5779V10.351H63.7308V6.72209H59.8536V2.87604H55.7907V4.17873C55.7907 5.75943 55.7907 6.72209 55.7907 6.72209H52.875V10.351H55.7907V17.795C55.7907 19.6767 56.3075 21.1448 57.3413 22.1993C58.3959 23.254 59.8744 23.7812 61.7768 23.7812Z" fill="currentColor"></path><path d="M18.805 23.2296H22.7133V13.7098C22.7133 12.6553 23.0118 11.8098 23.6084 11.1731C24.225 10.5365 25.0206 10.2182 25.9951 10.2182C26.9697 10.2182 27.7553 10.5365 28.3522 11.1731C28.9687 11.7899 29.2769 12.6354 29.2769 13.7098V23.2296H33.1852V12.7846C33.1852 11.571 32.9266 10.5066 32.4096 9.59146C31.8923 8.65639 31.1665 7.93021 30.2315 7.41294C29.3167 6.89567 28.2626 6.63702 27.0692 6.63702C26.0549 6.63702 25.1398 6.83598 24.3244 7.23387C23.5288 7.63178 22.9122 8.2187 22.4746 8.99461V6.99514H18.805V23.2296Z" fill="currentColor"></path><path d="M5.75227 23.2296V19.2582C6.05178 19.0804 6.33118 18.8575 6.58038 18.5899L6.69927 18.4623L6.70774 18.4693L9.13564 15.8827L9.13074 15.8786L16.7486 7.85571L14.1817 5.41837L6.54945 13.4564C6.30815 13.2034 6.03946 12.9914 5.75227 12.8209V0H2.21252V12.6706C1.90569 12.8192 1.6143 13.0125 1.34779 13.2509C-0.314825 14.7383 -0.314825 17.3409 1.3478 18.8282C1.6143 19.0666 1.90569 19.2599 2.21252 19.4086V23.2296H5.75227Z" fill="currentColor"></path><path d="M10.1046 16.6784L7.66168 19.2527L9.65525 20.8891C11.6731 22.5456 14.2029 23.4509 16.8136 23.4509V19.9111C15.022 19.9111 13.2859 19.2898 11.9011 18.1531L10.1046 16.6784Z" fill="currentColor"></path></g><defs><clipPath id="clip0_3748_4121"><rect width="64" height="23.8933" fill="white"></rect></clipPath></defs></svg>